<svg fill="none" height="24" viewBox="0 0 24 24" width="24" xmlns="http://www.w3.org/2000/svg"><path d="m7.62856 16.1012h-3.07346c-1.94765 0-3.52654-1.3284-3.52654-3.276 0-1.9477 1.57889-3.52653 3.52654-3.52653.13244 0 .26318.0073.39183.02152v-.02152h.04851c-.03202-.25673-.04851-.51828-.04851-.78368 0-3.46248 2.8069-6.26938 6.26937-6.26938 2.3447 0 4.3888 1.28713 5.4642 3.19337.2628-.03866.5317-.05868.8052-.05868 3.0297 0 5.4857 2.45604 5.4857 5.4857 0 2.7636-2.0436 4.7993-4.702 5.1796h-2.8408m-3.8204-6.3551v12.0638m0 0-2.77964-2.7087m2.77964 2.7087 2.7061-2.7087" stroke="#818cf8" stroke-linecap="round" stroke-linejoin="round" stroke-width="2"/></svg>