<svg fill="none" height="24" viewBox="0 0 24 24" width="24" xmlns="http://www.w3.org/2000/svg"><path d="m9.6001 21.5999h-2.4c-1.98823 0-3.6-1.6118-3.6-3.6v-12c0-1.98822 1.61177-3.6 3.6-3.6h8.4c1.9882 0 3.6 1.61178 3.6 3.6v3m-4.2 6v-1.2c0-.9941.8059-1.8 1.8-1.8s1.8.8059 1.8 1.8v1.8m-3.6-8.4h-7.8m4.2 3.6h-4.2m2.4 3.6h-2.4m7.2 7.2h4.8c.6627 0 1.2-.5373 1.2-1.2v-3.6c0-.6627-.5373-1.2-1.2-1.2h-4.8c-.6627 0-1.2.5373-1.2 1.2v3.6c0 .6627.5373 1.2 1.2 1.2z" stroke="#818cf8" stroke-linecap="round" stroke-linejoin="round" stroke-width="2"/></svg>