<svg fill="none" height="24" viewBox="0 0 24 24" width="24" xmlns="http://www.w3.org/2000/svg"><path d="m15.0002 2.3999v3.6c0 .66274.5372 1.2 1.2 1.2h3.6m-11.40003 0h2.40003m-2.40003 3.6h7.20003m-7.20003 3.6h7.20003m2.4-10.2c-.5341-.47786-1.0883-1.04462-1.4382-1.41272-.2328-.24494-.5545-.38728-.8924-.38728h-9.06971c-1.32548 0-2.39999 1.07451-2.4 2.39999l-.00009 14.39991c-.00001 1.3255 1.0745 2.4 2.39999 2.4l10.80001.0001c1.3255 0 2.4-1.0745 2.4-2.3999l.0004-12.72227c0-.30683-.1171-.60179-.33-.8227-.3938-.40848-1.0514-1.08061-1.47-1.45513z" stroke="#e879f9" stroke-linecap="round" stroke-linejoin="round" stroke-width="2"/></svg>