<svg fill="none" height="24" viewBox="0 0 24 24" width="24" xmlns="http://www.w3.org/2000/svg"><path d="m2.40002 18.2168c1.09865-1.8325 3.50652-3.0867 7.26312-3.0867 3.75656 0 6.16446 1.2542 7.26316 3.0867m.695-4.4762c1.9893.9946 2.984 1.9893 3.9787 3.9787m-6.0478-11.5817c.9361.50355 1.5724 1.49231 1.5724 2.6297 0 1.10453-.6 2.0689-1.492 2.5849m-2.9854-2.58493c0 1.64803-1.336 2.98403-2.98406 2.98403-1.64805 0-2.98407-1.336-2.98407-2.98403 0-1.64805 1.33602-2.98407 2.98407-2.98407 1.64806 0 2.98406 1.33602 2.98406 2.98407z" stroke="#818cf8" stroke-linecap="round" stroke-width="2"/></svg>